<?xml version="1.0" encoding="UTF-8" standalone="no"?>
<!DOCTYPE svg PUBLIC "-//W3C//DTD SVG 1.1//EN"
 "http://www.w3.org/Graphics/SVG/1.1/DTD/svg11.dtd">
<!-- Generated by graphviz version 2.44.0 (20200408.0750)
 -->
<!-- Title: G Pages: 1 -->
<svg width="105pt" height="66pt"
 viewBox="0.00 0.00 105.20 66.20" xmlns="http://www.w3.org/2000/svg" xmlns:xlink="http://www.w3.org/1999/xlink">
<g id="graph0" class="graph" transform="scale(1 1) rotate(0) translate(21.6 44.6)">
<title>G</title>
<polygon fill="#111111" stroke="transparent" points="-21.6,21.6 -21.6,-44.6 83.6,-44.6 83.6,21.6 -21.6,21.6"/>
<!-- App.tsx -->
<g id="node1" class="node">
<title>App.tsx</title>
<path fill="none" stroke="#cfffac" d="M54.33,-23C54.33,-23 7.67,-23 7.67,-23 3.83,-23 0,-19.17 0,-15.33 0,-15.33 0,-7.67 0,-7.67 0,-3.83 3.83,0 7.67,0 7.67,0 54.33,0 54.33,0 58.17,0 62,-3.83 62,-7.67 62,-7.67 62,-15.33 62,-15.33 62,-19.17 58.17,-23 54.33,-23"/>
<text text-anchor="middle" x="31" y="-7.8" font-family="Arial" font-size="14.00" fill="#cfffac">App.tsx</text>
</g>
</g>
</svg>
